<mxfile host="app.diagrams.net" modified="2023-06-11T13:45:03.304Z" agent="Mozilla/5.0 (Windows NT 10.0; Win64; x64) AppleWebKit/537.36 (KHTML, like Gecko) Chrome/114.0.0.0 Safari/537.36" etag="vi6wuPMzpkoEv2LD4azA" version="21.3.8" type="device">
  <diagram name="페이지-1" id="ilTycXGcQEC7P1KjRxtY">
    <mxGraphModel dx="1050" dy="549" grid="1" gridSize="10" guides="1" tooltips="1" connect="1" arrows="1" fold="1" page="1" pageScale="1" pageWidth="827" pageHeight="1169" math="0" shadow="0">
      <root>
        <mxCell id="0" />
        <mxCell id="1" parent="0" />
        <mxCell id="XiqdvJZgYnGLgTElsW7T-5" style="edgeStyle=orthogonalEdgeStyle;rounded=0;orthogonalLoop=1;jettySize=auto;html=1;exitX=1;exitY=0.5;exitDx=0;exitDy=0;entryX=0;entryY=0.5;entryDx=0;entryDy=0;entryPerimeter=0;" parent="1" source="XiqdvJZgYnGLgTElsW7T-1" target="XiqdvJZgYnGLgTElsW7T-2" edge="1">
          <mxGeometry relative="1" as="geometry" />
        </mxCell>
        <mxCell id="ihv4vDmcSObdJzUAZP7P-11" style="edgeStyle=orthogonalEdgeStyle;rounded=0;orthogonalLoop=1;jettySize=auto;html=1;entryX=0;entryY=0.5;entryDx=0;entryDy=0;entryPerimeter=0;" edge="1" parent="1" source="XiqdvJZgYnGLgTElsW7T-1" target="FoSNxoamMuhkXlRKIg11-5">
          <mxGeometry relative="1" as="geometry" />
        </mxCell>
        <mxCell id="XiqdvJZgYnGLgTElsW7T-1" value="&lt;font style=&quot;font-size: 22px;&quot;&gt;원본 음성&lt;br&gt;(wav)&lt;br&gt;&lt;/font&gt;" style="rounded=0;whiteSpace=wrap;html=1;" parent="1" vertex="1">
          <mxGeometry x="90" y="360" width="110" height="80" as="geometry" />
        </mxCell>
        <mxCell id="ihv4vDmcSObdJzUAZP7P-5" style="edgeStyle=orthogonalEdgeStyle;rounded=0;orthogonalLoop=1;jettySize=auto;html=1;entryX=0;entryY=0.5;entryDx=0;entryDy=0;" edge="1" parent="1" source="XiqdvJZgYnGLgTElsW7T-2" target="FoSNxoamMuhkXlRKIg11-11">
          <mxGeometry relative="1" as="geometry">
            <Array as="points">
              <mxPoint x="370" y="550" />
            </Array>
          </mxGeometry>
        </mxCell>
        <mxCell id="ihv4vDmcSObdJzUAZP7P-6" value="" style="edgeStyle=orthogonalEdgeStyle;rounded=0;orthogonalLoop=1;jettySize=auto;html=1;" edge="1" parent="1" source="XiqdvJZgYnGLgTElsW7T-2">
          <mxGeometry relative="1" as="geometry">
            <mxPoint x="444.40999999999985" y="400" as="targetPoint" />
          </mxGeometry>
        </mxCell>
        <mxCell id="ihv4vDmcSObdJzUAZP7P-24" style="edgeStyle=orthogonalEdgeStyle;rounded=0;orthogonalLoop=1;jettySize=auto;html=1;entryX=0;entryY=0.5;entryDx=0;entryDy=0;" edge="1" parent="1" source="XiqdvJZgYnGLgTElsW7T-2" target="ihv4vDmcSObdJzUAZP7P-20">
          <mxGeometry relative="1" as="geometry">
            <Array as="points">
              <mxPoint x="425" y="400" />
              <mxPoint x="425" y="290" />
            </Array>
          </mxGeometry>
        </mxCell>
        <mxCell id="XiqdvJZgYnGLgTElsW7T-2" value="&lt;font style=&quot;font-size: 22px;&quot;&gt;대본&lt;/font&gt;" style="shape=note;whiteSpace=wrap;html=1;backgroundOutline=1;darkOpacity=0.05;" parent="1" vertex="1">
          <mxGeometry x="330" y="350" width="80" height="100" as="geometry" />
        </mxCell>
        <mxCell id="XiqdvJZgYnGLgTElsW7T-20" value="&lt;font style=&quot;font-size: 22px;&quot;&gt;요약&lt;/font&gt;" style="shape=note;whiteSpace=wrap;html=1;backgroundOutline=1;darkOpacity=0.05;size=23;" parent="1" vertex="1">
          <mxGeometry x="600" y="500" width="80" height="100" as="geometry" />
        </mxCell>
        <mxCell id="XiqdvJZgYnGLgTElsW7T-25" value="" style="rounded=0;whiteSpace=wrap;html=1;" parent="1" vertex="1">
          <mxGeometry x="20" y="10" width="20" height="10" as="geometry" />
        </mxCell>
        <mxCell id="FoSNxoamMuhkXlRKIg11-25" style="edgeStyle=orthogonalEdgeStyle;rounded=0;orthogonalLoop=1;jettySize=auto;html=1;exitX=0.75;exitY=1;exitDx=0;exitDy=0;" parent="1" source="XiqdvJZgYnGLgTElsW7T-26" edge="1">
          <mxGeometry relative="1" as="geometry">
            <mxPoint x="980" y="890" as="targetPoint" />
          </mxGeometry>
        </mxCell>
        <mxCell id="XiqdvJZgYnGLgTElsW7T-26" value="" style="rounded=0;whiteSpace=wrap;html=1;" parent="1" vertex="1">
          <mxGeometry x="967" y="890" width="20" height="50" as="geometry" />
        </mxCell>
        <mxCell id="FoSNxoamMuhkXlRKIg11-16" value="" style="edgeStyle=orthogonalEdgeStyle;rounded=0;orthogonalLoop=1;jettySize=auto;html=1;" parent="1" source="FoSNxoamMuhkXlRKIg11-5" target="FoSNxoamMuhkXlRKIg11-12" edge="1">
          <mxGeometry relative="1" as="geometry" />
        </mxCell>
        <mxCell id="FoSNxoamMuhkXlRKIg11-5" value="&lt;font style=&quot;font-size: 22px;&quot;&gt;텍스트&lt;/font&gt;" style="shape=note;whiteSpace=wrap;html=1;backgroundOutline=1;darkOpacity=0.05;" parent="1" vertex="1">
          <mxGeometry x="330" y="645" width="80" height="100" as="geometry" />
        </mxCell>
        <mxCell id="FoSNxoamMuhkXlRKIg11-6" value="&lt;font style=&quot;font-size: 22px;&quot;&gt;요약&lt;/font&gt;" style="shape=note;whiteSpace=wrap;html=1;backgroundOutline=1;darkOpacity=0.05;size=22;" parent="1" vertex="1">
          <mxGeometry x="600" y="645" width="80" height="100" as="geometry" />
        </mxCell>
        <mxCell id="FoSNxoamMuhkXlRKIg11-9" value="&lt;font style=&quot;font-size: 14px;&quot;&gt;STT&lt;/font&gt;" style="text;html=1;strokeColor=none;fillColor=none;align=center;verticalAlign=middle;whiteSpace=wrap;rounded=0;" parent="1" vertex="1">
          <mxGeometry x="260" y="660" width="60" height="30" as="geometry" />
        </mxCell>
        <mxCell id="FoSNxoamMuhkXlRKIg11-15" value="" style="edgeStyle=orthogonalEdgeStyle;rounded=0;orthogonalLoop=1;jettySize=auto;html=1;" parent="1" source="FoSNxoamMuhkXlRKIg11-11" target="XiqdvJZgYnGLgTElsW7T-20" edge="1">
          <mxGeometry relative="1" as="geometry" />
        </mxCell>
        <mxCell id="FoSNxoamMuhkXlRKIg11-11" value="&lt;font style=&quot;font-size: 22px;&quot;&gt;Kobart&lt;/font&gt;" style="rounded=0;whiteSpace=wrap;html=1;fillColor=#dae8fc;strokeColor=#6c8ebf;" parent="1" vertex="1">
          <mxGeometry x="450" y="520" width="120" height="60" as="geometry" />
        </mxCell>
        <mxCell id="FoSNxoamMuhkXlRKIg11-17" value="" style="edgeStyle=orthogonalEdgeStyle;rounded=0;orthogonalLoop=1;jettySize=auto;html=1;" parent="1" source="FoSNxoamMuhkXlRKIg11-12" target="FoSNxoamMuhkXlRKIg11-6" edge="1">
          <mxGeometry relative="1" as="geometry" />
        </mxCell>
        <mxCell id="FoSNxoamMuhkXlRKIg11-12" value="&lt;font style=&quot;font-size: 22px;&quot;&gt;Kobart&lt;/font&gt;" style="rounded=0;whiteSpace=wrap;html=1;fillColor=#f8cecc;strokeColor=#b85450;" parent="1" vertex="1">
          <mxGeometry x="450" y="665" width="120" height="60" as="geometry" />
        </mxCell>
        <mxCell id="FoSNxoamMuhkXlRKIg11-21" value="" style="edgeStyle=orthogonalEdgeStyle;rounded=0;orthogonalLoop=1;jettySize=auto;html=1;" parent="1" source="FoSNxoamMuhkXlRKIg11-19" target="FoSNxoamMuhkXlRKIg11-11" edge="1">
          <mxGeometry relative="1" as="geometry" />
        </mxCell>
        <mxCell id="FoSNxoamMuhkXlRKIg11-19" value="&lt;font style=&quot;font-size: 14px;&quot;&gt;방송 대본 데이터&lt;/font&gt;" style="ellipse;whiteSpace=wrap;html=1;" parent="1" vertex="1">
          <mxGeometry x="455" y="600" width="110" height="60" as="geometry" />
        </mxCell>
        <mxCell id="FoSNxoamMuhkXlRKIg11-22" value="" style="edgeStyle=orthogonalEdgeStyle;rounded=0;orthogonalLoop=1;jettySize=auto;html=1;" parent="1" target="FoSNxoamMuhkXlRKIg11-12" edge="1" source="FoSNxoamMuhkXlRKIg11-23">
          <mxGeometry relative="1" as="geometry">
            <mxPoint x="510" y="770" as="sourcePoint" />
          </mxGeometry>
        </mxCell>
        <mxCell id="FoSNxoamMuhkXlRKIg11-24" style="edgeStyle=orthogonalEdgeStyle;rounded=0;orthogonalLoop=1;jettySize=auto;html=1;entryX=1.24;entryY=1.7;entryDx=0;entryDy=0;entryPerimeter=0;" parent="1" target="XiqdvJZgYnGLgTElsW7T-26" edge="1">
          <mxGeometry relative="1" as="geometry">
            <mxPoint x="960" y="887" as="sourcePoint" />
            <Array as="points">
              <mxPoint x="960" y="970" />
              <mxPoint x="992" y="970" />
            </Array>
          </mxGeometry>
        </mxCell>
        <mxCell id="ihv4vDmcSObdJzUAZP7P-9" value="" style="edgeStyle=orthogonalEdgeStyle;rounded=0;orthogonalLoop=1;jettySize=auto;html=1;" edge="1" parent="1" target="ihv4vDmcSObdJzUAZP7P-8">
          <mxGeometry relative="1" as="geometry">
            <mxPoint x="575.5899999999999" y="400" as="sourcePoint" />
          </mxGeometry>
        </mxCell>
        <mxCell id="ihv4vDmcSObdJzUAZP7P-8" value="&lt;font style=&quot;font-size: 18px;&quot;&gt;화자 별 요약&lt;/font&gt;" style="shape=note;whiteSpace=wrap;html=1;backgroundOutline=1;darkOpacity=0.05;size=24;" vertex="1" parent="1">
          <mxGeometry x="600" y="350" width="80" height="100" as="geometry" />
        </mxCell>
        <mxCell id="XiqdvJZgYnGLgTElsW7T-14" value="&lt;font style=&quot;font-size: 14px;&quot;&gt;화자 분리&lt;br&gt;화자 인식&lt;br&gt;STT&lt;/font&gt;" style="text;html=1;strokeColor=none;fillColor=none;align=center;verticalAlign=middle;whiteSpace=wrap;rounded=0;" parent="1" vertex="1">
          <mxGeometry x="220" y="330" width="130" height="70" as="geometry" />
        </mxCell>
        <mxCell id="ihv4vDmcSObdJzUAZP7P-13" value="" style="shape=curlyBracket;whiteSpace=wrap;html=1;rounded=1;flipH=1;labelPosition=right;verticalLabelPosition=middle;align=left;verticalAlign=middle;size=0;" vertex="1" parent="1">
          <mxGeometry x="720" y="550" width="20" height="150" as="geometry" />
        </mxCell>
        <mxCell id="ihv4vDmcSObdJzUAZP7P-14" value="&lt;font style=&quot;font-size: 22px;&quot;&gt;GPT-3.5&lt;/font&gt;" style="rounded=0;whiteSpace=wrap;html=1;fillColor=#d5e8d4;strokeColor=#82b366;" vertex="1" parent="1">
          <mxGeometry x="445" y="370" width="120" height="60" as="geometry" />
        </mxCell>
        <mxCell id="ihv4vDmcSObdJzUAZP7P-15" value="" style="edgeStyle=orthogonalEdgeStyle;rounded=0;orthogonalLoop=1;jettySize=auto;html=1;" edge="1" parent="1" target="FoSNxoamMuhkXlRKIg11-23">
          <mxGeometry relative="1" as="geometry">
            <mxPoint x="510" y="770" as="sourcePoint" />
            <mxPoint x="510" y="725" as="targetPoint" />
          </mxGeometry>
        </mxCell>
        <mxCell id="FoSNxoamMuhkXlRKIg11-23" value="&lt;font style=&quot;font-size: 14px;&quot;&gt;(수정)&lt;br&gt;방송 대본 데이터&lt;/font&gt;" style="ellipse;whiteSpace=wrap;html=1;" parent="1" vertex="1">
          <mxGeometry x="455" y="745" width="110" height="60" as="geometry" />
        </mxCell>
        <mxCell id="ihv4vDmcSObdJzUAZP7P-16" value="&lt;font style=&quot;font-size: 18px;&quot;&gt;성능 비교&lt;/font&gt;" style="text;html=1;strokeColor=none;fillColor=none;align=center;verticalAlign=middle;whiteSpace=wrap;rounded=0;" vertex="1" parent="1">
          <mxGeometry x="740" y="610" width="100" height="30" as="geometry" />
        </mxCell>
        <mxCell id="ihv4vDmcSObdJzUAZP7P-22" style="edgeStyle=orthogonalEdgeStyle;rounded=0;orthogonalLoop=1;jettySize=auto;html=1;entryX=0.5;entryY=0;entryDx=0;entryDy=0;entryPerimeter=0;" edge="1" parent="1" source="ihv4vDmcSObdJzUAZP7P-20" target="ihv4vDmcSObdJzUAZP7P-8">
          <mxGeometry relative="1" as="geometry" />
        </mxCell>
        <mxCell id="ihv4vDmcSObdJzUAZP7P-20" value="&lt;font style=&quot;font-size: 18px;&quot;&gt;화자 별 중요도&lt;/font&gt;" style="rounded=0;whiteSpace=wrap;html=1;" vertex="1" parent="1">
          <mxGeometry x="445" y="260" width="120" height="60" as="geometry" />
        </mxCell>
        <mxCell id="ihv4vDmcSObdJzUAZP7P-25" value="&lt;font style=&quot;font-size: 14px;&quot;&gt;rex-rank,&lt;br&gt;sentence embedding&lt;/font&gt;" style="text;html=1;strokeColor=none;fillColor=none;align=center;verticalAlign=middle;whiteSpace=wrap;rounded=0;" vertex="1" parent="1">
          <mxGeometry x="330" y="280" width="100" height="30" as="geometry" />
        </mxCell>
      </root>
    </mxGraphModel>
  </diagram>
</mxfile>
